<svg width="101" height="21" viewBox="0 0 101 21" fill="none" xmlns="http://www.w3.org/2000/svg">
<path d="M31.44 17V5.832H38.32V7H32.784V10.76H38.128V11.928H32.784V15.832H38.32V17H31.44ZM42.8418 7.544H42.7298V17H41.5138V5.832H43.4178L47.2258 15.192H47.3378V5.832H48.5538V17H46.6498L42.8418 7.544ZM57.5715 15.512H57.4915C57.3955 15.7253 57.2835 15.9333 57.1555 16.136C57.0275 16.3387 56.8622 16.52 56.6595 16.68C56.4675 16.8293 56.2328 16.952 55.9555 17.048C55.6782 17.144 55.3475 17.192 54.9635 17.192C53.7475 17.192 52.8408 16.7013 52.2435 15.72C51.6568 14.7387 51.3635 13.3307 51.3635 11.496C51.3635 9.576 51.6888 8.12 52.3395 7.128C52.9902 6.136 53.9928 5.64 55.3475 5.64C55.8702 5.64 56.3235 5.70933 56.7075 5.848C57.0915 5.98667 57.4168 6.17333 57.6835 6.408C57.9608 6.64267 58.1902 6.90933 58.3715 7.208C58.5528 7.496 58.7022 7.78933 58.8195 8.088L57.6675 8.616C57.5715 8.37067 57.4595 8.14133 57.3315 7.928C57.2142 7.704 57.0648 7.512 56.8835 7.352C56.7128 7.18133 56.5048 7.048 56.2595 6.952C56.0142 6.856 55.7262 6.808 55.3955 6.808C54.4995 6.808 53.8382 7.144 53.4115 7.816C52.9955 8.488 52.7875 9.384 52.7875 10.504V12.232C52.7875 12.7973 52.8302 13.3147 52.9155 13.784C53.0008 14.2427 53.1395 14.6427 53.3315 14.984C53.5342 15.3253 53.7902 15.592 54.0995 15.784C54.4195 15.9653 54.8088 16.056 55.2675 16.056C55.9928 16.056 56.5582 15.8373 56.9635 15.4C57.3688 14.9627 57.5715 14.3973 57.5715 13.704V12.552H55.2195V11.48H58.8195V17H57.5715V15.512ZM62.6213 17V5.832H63.9653V15.832H69.2613V17H62.6213ZM72.279 17V15.928H75.063V6.904H72.279V5.832H79.191V6.904H76.407V15.928H79.191V17H72.279ZM85.9368 17.192C84.9341 17.192 84.1128 17.0107 83.4728 16.648C82.8328 16.2747 82.3048 15.8 81.8888 15.224L82.8648 14.424C83.3021 14.968 83.7608 15.3733 84.2408 15.64C84.7314 15.9067 85.3128 16.04 85.9848 16.04C86.7954 16.04 87.4141 15.8533 87.8408 15.48C88.2674 15.1067 88.4808 14.584 88.4808 13.912C88.4808 13.368 88.3261 12.9467 88.0168 12.648C87.7074 12.3387 87.1688 12.12 86.4008 11.992L85.1528 11.784C84.6088 11.688 84.1501 11.544 83.7768 11.352C83.4141 11.16 83.1208 10.9307 82.8968 10.664C82.6728 10.3867 82.5128 10.088 82.4168 9.768C82.3208 9.43733 82.2728 9.096 82.2728 8.744C82.2728 7.72 82.6088 6.94667 83.2808 6.424C83.9528 5.90133 84.8594 5.64 86.0008 5.64C86.8968 5.64 87.6488 5.78933 88.2568 6.088C88.8754 6.38667 89.3714 6.808 89.7448 7.352L88.8008 8.168C88.4914 7.76267 88.1181 7.432 87.6808 7.176C87.2434 6.92 86.6781 6.792 85.9848 6.792C85.2274 6.792 84.6461 6.952 84.2408 7.272C83.8354 7.592 83.6328 8.072 83.6328 8.712C83.6328 9.21333 83.7821 9.624 84.0808 9.944C84.3901 10.2533 84.9394 10.4773 85.7288 10.616L86.9288 10.824C87.4728 10.92 87.9314 11.064 88.3048 11.256C88.6781 11.448 88.9768 11.6773 89.2008 11.944C89.4354 12.2107 89.6008 12.5093 89.6968 12.84C89.7928 13.1707 89.8408 13.5173 89.8408 13.88C89.8408 14.9147 89.4994 15.7253 88.8168 16.312C88.1448 16.8987 87.1848 17.192 85.9368 17.192ZM98.3785 11.928H94.0265V17H92.6825V5.832H94.0265V10.76H98.3785V5.832H99.7225V17H98.3785V11.928Z" fill="black"/>
<g clip-path="url(#clip0_450:1022)">
<path d="M9 20C13.9706 20 18 15.9706 18 11C18 6.02944 13.9706 2 9 2C4.02944 2 0 6.02944 0 11C0 15.9706 4.02944 20 9 20Z" fill="#F0F0F0"/>
<path d="M8.60876 11.0002H18.0001C18.0001 10.1879 17.8918 9.40092 17.69 8.65234H8.60876V11.0002Z" fill="#D80027"/>
<path d="M8.60876 6.30438H16.6791C16.1282 5.40537 15.4237 4.61073 14.6024 3.95654H8.60876V6.30438Z" fill="#D80027"/>
<path d="M9.00006 20C11.1182 20 13.065 19.2679 14.6024 18.0435H3.39771C4.93509 19.2679 6.88194 20 9.00006 20Z" fill="#D80027"/>
<path d="M1.32098 15.6955H16.6791C17.1214 14.9738 17.4644 14.1849 17.69 13.3477H0.310059C0.535656 14.1849 0.878676 14.9738 1.32098 15.6955Z" fill="#D80027"/>
<path d="M4.16897 3.40548H4.98913L4.22624 3.95971L4.51765 4.85652L3.75479 4.30228L2.99194 4.85652L3.24366 4.08178C2.57196 4.64129 1.98323 5.29681 1.49808 6.02722H1.76087L1.27526 6.38001C1.1996 6.50622 1.12704 6.63444 1.0575 6.76455L1.28939 7.47826L0.856758 7.16393C0.749215 7.39177 0.650848 7.62475 0.56243 7.86259L0.81791 8.64896H1.76087L0.99798 9.2032L1.28939 10.1L0.526535 9.54576L0.0695742 9.87778C0.0238359 10.2454 0 10.6199 0 11H9C9 6.02947 9 5.44348 9 2C7.22208 2 5.56471 2.51574 4.16897 3.40548ZM4.51765 10.1L3.75479 9.54576L2.99194 10.1L3.28335 9.2032L2.52046 8.64896H3.46342L3.75479 7.75216L4.04617 8.64896H4.98913L4.22624 9.2032L4.51765 10.1ZM4.22624 6.58146L4.51765 7.47826L3.75479 6.92402L2.99194 7.47826L3.28335 6.58146L2.52046 6.02722H3.46342L3.75479 5.13042L4.04617 6.02722H4.98913L4.22624 6.58146ZM7.74591 10.1L6.98305 9.54576L6.22019 10.1L6.51161 9.2032L5.74871 8.64896H6.69168L6.98305 7.75216L7.27443 8.64896H8.21739L7.4545 9.2032L7.74591 10.1ZM7.4545 6.58146L7.74591 7.47826L6.98305 6.92402L6.22019 7.47826L6.51161 6.58146L5.74871 6.02722H6.69168L6.98305 5.13042L7.27443 6.02722H8.21739L7.4545 6.58146ZM7.4545 3.95971L7.74591 4.85652L6.98305 4.30228L6.22019 4.85652L6.51161 3.95971L5.74871 3.40548H6.69168L6.98305 2.50868L7.27443 3.40548H8.21739L7.4545 3.95971Z" fill="#0052B4"/>
</g>
<defs>
<clipPath id="clip0_450:1022">
<rect width="18" height="18" fill="white" transform="translate(0 2)"/>
</clipPath>
</defs>
</svg>
