<svg width="73" height="21" viewBox="0 0 73 21" fill="none" xmlns="http://www.w3.org/2000/svg">
<path d="M38.976 11.928H34.624V17H33.28V5.832H34.624V10.76H38.976V5.832H40.32V17H38.976V11.928ZM43.6738 17V5.832H50.5538V7H45.0178V10.76H50.3618V11.928H45.0178V15.832H50.5538V17H43.6738ZM54.3875 17V5.832H55.7315V15.832H61.0275V17H54.3875ZM64.1413 17V5.832H68.2053C69.2399 5.832 70.0293 6.11467 70.5733 6.68C71.1173 7.24533 71.3893 8.03467 71.3893 9.048C71.3893 10.0613 71.1173 10.8507 70.5733 11.416C70.0293 11.9813 69.2399 12.264 68.2053 12.264H65.4853V17H64.1413ZM65.4853 11.096H68.1733C68.7386 11.096 69.1759 10.9573 69.4853 10.68C69.8053 10.392 69.9653 9.98667 69.9653 9.464V8.632C69.9653 8.10933 69.8053 7.70933 69.4853 7.432C69.1759 7.144 68.7386 7 68.1733 7H65.4853V11.096Z" fill="black"/>
<path fill-rule="evenodd" clip-rule="evenodd" d="M1.25 11C1.25 6.16751 5.16751 2.25 10 2.25C12.3206 2.25 14.5462 3.17187 16.1872 4.81282C17.8281 6.45376 18.75 8.67936 18.75 11C18.75 15.8325 14.8325 19.75 10 19.75C5.16751 19.75 1.25 15.8325 1.25 11ZM11.1875 15.9375C11.1875 16.4553 10.7678 16.875 10.25 16.875C9.73223 16.875 9.3125 16.4553 9.3125 15.9375C9.3125 15.4197 9.73223 15 10.25 15C10.7678 15 11.1875 15.4197 11.1875 15.9375ZM10.875 6.25001H9.93751C9.19108 6.24834 8.47474 6.54412 7.94693 7.07193C7.41912 7.59974 7.12334 8.31608 7.12501 9.06251V9.37501H8.37501V9.06251C8.37501 8.19956 9.07456 7.50001 9.93751 7.50001H10.875C11.738 7.50001 12.4375 8.19956 12.4375 9.06251C12.4375 9.92545 11.738 10.625 10.875 10.625H9.62501V13.4375H10.875V11.875C12.4283 11.875 13.6875 10.6158 13.6875 9.06251C13.6875 7.50921 12.4283 6.25001 10.875 6.25001ZM2.5 11C2.5 15.1421 5.85786 18.5 10 18.5C14.1421 18.5 17.5 15.1421 17.5 11C17.5 6.85786 14.1421 3.5 10 3.5C5.85786 3.5 2.5 6.85786 2.5 11Z" fill="#2A64F5"/>
</svg>
